<svg width="96" height="48" viewBox="0 0 96 48" fill="none" xmlns="http://www.w3.org/2000/svg">
<g filter="url(#filter0_d_2128_2009)">
<path fill-rule="evenodd" clip-rule="evenodd" d="M6 9C6 6.23858 8.23858 4 11 4H81C83.7614 4 86 6.23858 86 9V25C86 27.7614 83.7614 30 81 30L52 30L46 35.9771L40 30L11 30C8.23858 30 6 27.7614 6 25V9Z" fill="#090C2C"/>
<path d="M24.5327 22.0909V11.1818H25.2315V22.0909H24.5327ZM26.7188 14.5653C26.6733 14.1619 26.4858 13.8494 26.1562 13.6278C25.8267 13.4034 25.4119 13.2912 24.9119 13.2912C24.554 13.2912 24.2443 13.348 23.983 13.4616C23.7216 13.5724 23.5185 13.7259 23.3736 13.9219C23.2315 14.1151 23.1605 14.3352 23.1605 14.5824C23.1605 14.7898 23.2088 14.9687 23.3054 15.1193C23.4048 15.2699 23.5341 15.3963 23.6932 15.4986C23.8551 15.598 24.0284 15.6818 24.2131 15.75C24.3977 15.8153 24.5753 15.8693 24.7457 15.9119L25.598 16.1335C25.8764 16.2017 26.1619 16.294 26.4545 16.4105C26.7472 16.527 27.0185 16.6804 27.2685 16.8707C27.5185 17.0611 27.7202 17.2969 27.8736 17.5781C28.0298 17.8594 28.108 18.196 28.108 18.5881C28.108 19.0824 27.9801 19.5213 27.7244 19.9048C27.4716 20.2884 27.1037 20.5909 26.6207 20.8125C26.1406 21.0341 25.5597 21.1449 24.8778 21.1449C24.2244 21.1449 23.6591 21.0412 23.1818 20.8338C22.7045 20.6264 22.331 20.3324 22.0611 19.9517C21.7912 19.5682 21.642 19.1136 21.6136 18.5881H22.9347C22.9602 18.9034 23.0625 19.1662 23.2415 19.3764C23.4233 19.5838 23.6548 19.7386 23.9361 19.8409C24.2202 19.9403 24.5312 19.9901 24.8693 19.9901C25.2415 19.9901 25.5724 19.9318 25.8622 19.8153C26.1548 19.696 26.3849 19.5312 26.5526 19.321C26.7202 19.108 26.804 18.8594 26.804 18.5753C26.804 18.3168 26.7301 18.1051 26.5824 17.9403C26.4375 17.7756 26.2401 17.6392 25.9901 17.5312C25.7429 17.4233 25.4631 17.3281 25.1506 17.2457L24.1193 16.9645C23.4205 16.7741 22.8665 16.4943 22.4574 16.125C22.0511 15.7557 21.848 15.267 21.848 14.6591C21.848 14.1562 21.9844 13.7173 22.2571 13.3423C22.5298 12.9673 22.8991 12.6761 23.3651 12.4688C23.831 12.2585 24.3565 12.1534 24.9418 12.1534C25.5327 12.1534 26.054 12.2571 26.5057 12.4645C26.9602 12.6719 27.3182 12.9574 27.5795 13.321C27.8409 13.6818 27.9773 14.0966 27.9886 14.5653H26.7188ZM29.3789 19.2955V18.2301L33.1502 12.2727H33.9897V13.8409H33.457L30.7596 18.1108V18.179H35.9286V19.2955H29.3789ZM33.5167 21V18.9716L33.5252 18.4858V12.2727H34.7738V21H33.5167ZM40.2944 21.1193C39.7603 21.1193 39.2802 21.017 38.854 20.8125C38.4308 20.6051 38.0927 20.321 37.8398 19.9602C37.587 19.5994 37.4521 19.1875 37.435 18.7244H38.7134C38.7447 19.0994 38.9109 19.4077 39.212 19.6491C39.5131 19.8906 39.8739 20.0114 40.2944 20.0114C40.6296 20.0114 40.9265 19.9347 41.185 19.7812C41.4464 19.625 41.6509 19.4105 41.7987 19.1378C41.9492 18.8651 42.0245 18.554 42.0245 18.2045C42.0245 17.8494 41.9478 17.5327 41.7944 17.2543C41.641 16.9759 41.4293 16.7571 41.1594 16.598C40.8924 16.4389 40.5856 16.358 40.239 16.3551C39.9748 16.3551 39.7092 16.4006 39.4421 16.4915C39.1751 16.5824 38.9592 16.7017 38.7944 16.8494L37.5884 16.6705L38.0785 12.2727H42.8768V13.402H39.1737L38.8967 15.8438H38.9478C39.1183 15.679 39.3441 15.5412 39.6254 15.4304C39.9094 15.3196 40.2134 15.2642 40.5373 15.2642C41.0685 15.2642 41.5415 15.3906 41.9563 15.6435C42.3739 15.8963 42.7021 16.2415 42.9407 16.679C43.1822 17.1136 43.3015 17.6136 43.2987 18.179C43.3015 18.7443 43.1737 19.2486 42.9151 19.6918C42.6594 20.1349 42.3043 20.4844 41.8498 20.7401C41.3981 20.9929 40.8796 21.1193 40.2944 21.1193ZM45.3952 21.081C45.1623 21.081 44.962 20.9986 44.7944 20.8338C44.6268 20.6662 44.543 20.4645 44.543 20.2287C44.543 19.9957 44.6268 19.7969 44.7944 19.6321C44.962 19.4645 45.1623 19.3807 45.3952 19.3807C45.6282 19.3807 45.8285 19.4645 45.9961 19.6321C46.1637 19.7969 46.2475 19.9957 46.2475 20.2287C46.2475 20.3849 46.2077 20.5284 46.1282 20.6591C46.0515 20.7869 45.9492 20.8892 45.8214 20.9659C45.6935 21.0426 45.5515 21.081 45.3952 21.081ZM50.6591 21.1449C49.9858 21.142 49.4105 20.9645 48.9332 20.6122C48.456 20.2599 48.0909 19.7472 47.8381 19.0739C47.5852 18.4006 47.4588 17.5895 47.4588 16.6406C47.4588 15.6946 47.5852 14.8864 47.8381 14.2159C48.0938 13.5455 48.4602 13.0341 48.9375 12.6818C49.4176 12.3295 49.9915 12.1534 50.6591 12.1534C51.3267 12.1534 51.8991 12.331 52.3764 12.6861C52.8537 13.0384 53.2188 13.5497 53.4716 14.2202C53.7273 14.8878 53.8551 15.6946 53.8551 16.6406C53.8551 17.5923 53.7287 18.4048 53.4759 19.0781C53.223 19.7486 52.858 20.2614 52.3807 20.6165C51.9034 20.9688 51.3295 21.1449 50.6591 21.1449ZM50.6591 20.0071C51.25 20.0071 51.7116 19.7188 52.044 19.142C52.3793 18.5653 52.5469 17.7315 52.5469 16.6406C52.5469 15.9162 52.4702 15.304 52.3168 14.804C52.1662 14.3011 51.9489 13.9205 51.6648 13.6619C51.3835 13.4006 51.0483 13.2699 50.6591 13.2699C50.071 13.2699 49.6094 13.5597 49.2741 14.1392C48.9389 14.7187 48.7699 15.5526 48.767 16.6406C48.767 17.3679 48.8423 17.983 48.9929 18.4858C49.1463 18.9858 49.3636 19.3651 49.6449 19.6236C49.9261 19.8793 50.2642 20.0071 50.6591 20.0071ZM58.4052 21.1449C57.7319 21.142 57.1566 20.9645 56.6793 20.6122C56.2021 20.2599 55.837 19.7472 55.5842 19.0739C55.3313 18.4006 55.2049 17.5895 55.2049 16.6406C55.2049 15.6946 55.3313 14.8864 55.5842 14.2159C55.8398 13.5455 56.2063 13.0341 56.6836 12.6818C57.1637 12.3295 57.7376 12.1534 58.4052 12.1534C59.0728 12.1534 59.6452 12.331 60.1225 12.6861C60.5998 13.0384 60.9648 13.5497 61.2177 14.2202C61.4734 14.8878 61.6012 15.6946 61.6012 16.6406C61.6012 17.5923 61.4748 18.4048 61.2219 19.0781C60.9691 19.7486 60.604 20.2614 60.1268 20.6165C59.6495 20.9688 59.0756 21.1449 58.4052 21.1449ZM58.4052 20.0071C58.9961 20.0071 59.4577 19.7188 59.7901 19.142C60.1254 18.5653 60.293 17.7315 60.293 16.6406C60.293 15.9162 60.2163 15.304 60.0629 14.804C59.9123 14.3011 59.695 13.9205 59.4109 13.6619C59.1296 13.4006 58.7944 13.2699 58.4052 13.2699C57.8171 13.2699 57.3555 13.5597 57.0202 14.1392C56.685 14.7187 56.516 15.5526 56.5131 16.6406C56.5131 17.3679 56.5884 17.983 56.739 18.4858C56.8924 18.9858 57.1097 19.3651 57.391 19.6236C57.6722 19.8793 58.0103 20.0071 58.4052 20.0071ZM66.1513 21.1449C65.478 21.142 64.9027 20.9645 64.4254 20.6122C63.9482 20.2599 63.5831 19.7472 63.3303 19.0739C63.0774 18.4006 62.951 17.5895 62.951 16.6406C62.951 15.6946 63.0774 14.8864 63.3303 14.2159C63.5859 13.5455 63.9524 13.0341 64.4297 12.6818C64.9098 12.3295 65.4837 12.1534 66.1513 12.1534C66.8189 12.1534 67.3913 12.331 67.8686 12.6861C68.3459 13.0384 68.7109 13.5497 68.9638 14.2202C69.2195 14.8878 69.3473 15.6946 69.3473 16.6406C69.3473 17.5923 69.2209 18.4048 68.968 19.0781C68.7152 19.7486 68.3501 20.2614 67.8729 20.6165C67.3956 20.9688 66.8217 21.1449 66.1513 21.1449ZM66.1513 20.0071C66.7422 20.0071 67.2038 19.7188 67.5362 19.142C67.8714 18.5653 68.0391 17.7315 68.0391 16.6406C68.0391 15.9162 67.9624 15.304 67.8089 14.804C67.6584 14.3011 67.4411 13.9205 67.157 13.6619C66.8757 13.4006 66.5405 13.2699 66.1513 13.2699C65.5632 13.2699 65.1016 13.5597 64.7663 14.1392C64.4311 14.7187 64.2621 15.5526 64.2592 16.6406C64.2592 17.3679 64.3345 17.983 64.4851 18.4858C64.6385 18.9858 64.8558 19.3651 65.1371 19.6236C65.4183 19.8793 65.7564 20.0071 66.1513 20.0071Z" fill="white"/>
</g>
<defs>
<filter id="filter0_d_2128_2009" x="0" y="0" width="96" height="47.9771" filterUnits="userSpaceOnUse" color-interpolation-filters="sRGB">
<feFlood flood-opacity="0" result="BackgroundImageFix"/>
<feColorMatrix in="SourceAlpha" type="matrix" values="0 0 0 0 0 0 0 0 0 0 0 0 0 0 0 0 0 0 127 0" result="hardAlpha"/>
<feOffset dx="2" dy="4"/>
<feGaussianBlur stdDeviation="4"/>
<feComposite in2="hardAlpha" operator="out"/>
<feColorMatrix type="matrix" values="0 0 0 0 0 0 0 0 0 0 0 0 0 0 0 0 0 0 0.1 0"/>
<feBlend mode="normal" in2="BackgroundImageFix" result="effect1_dropShadow_2128_2009"/>
<feBlend mode="normal" in="SourceGraphic" in2="effect1_dropShadow_2128_2009" result="shape"/>
</filter>
</defs>
</svg>
